<svg width="49" height="42" viewBox="0 0 49 42" fill="none" xmlns="http://www.w3.org/2000/svg">
<path d="M12.8197 32.2468C13.8473 30.2565 15.4442 28.2224 17.9499 26.6764C20.4536 25.1317 23.9849 24 29 24C34.0151 24 37.5464 25.1317 40.0501 26.6764C42.5558 28.2224 44.1527 30.2565 45.1803 32.2468C45.7945 33.4365 45.5786 34.4942 44.8599 35.3557C44.0826 36.2873 42.6698 37 41 37H17C15.3302 37 13.9174 36.2873 13.1401 35.3557C12.4214 34.4942 12.2055 33.4365 12.8197 32.2468Z" fill="#293133" stroke="white" stroke-width="4"/>
<circle cx="28.5" cy="14.5" r="12.5" fill="#293133" stroke="white" stroke-width="4"/>
<path d="M3.81974 35.2468C4.84734 33.2565 6.44415 31.2224 8.94992 29.6764C11.4536 28.1317 14.9849 27 20 27C25.0151 27 28.5464 28.1317 31.0501 29.6764C33.5558 31.2224 35.1527 33.2565 36.1803 35.2468C36.7945 36.4365 36.5786 37.4942 35.8599 38.3557C35.0826 39.2873 33.6698 40 32 40H8C6.33021 40 4.91736 39.2873 4.14011 38.3557C3.42142 37.4942 3.20553 36.4365 3.81974 35.2468Z" fill="#293133" stroke="white" stroke-width="4"/>
<circle cx="19.5" cy="17.5" r="12.5" fill="#293133" stroke="white" stroke-width="4"/>
</svg>
